<mxfile host="app.diagrams.net" agent="Mozilla/5.0 (Windows NT 10.0; Win64; x64) AppleWebKit/537.36 (KHTML, like Gecko) Chrome/133.0.0.0 Safari/537.36 Edg/133.0.0.0" version="26.0.11">
  <diagram name="Page-1" id="dd8cIECYtLtFShTJi25j">
    <mxGraphModel dx="1760" dy="370" grid="1" gridSize="10" guides="1" tooltips="1" connect="1" arrows="1" fold="1" page="1" pageScale="1" pageWidth="850" pageHeight="1100" math="0" shadow="0">
      <root>
        <mxCell id="0" />
        <mxCell id="1" parent="0" />
        <mxCell id="d7gIqnNGh7gK6bCU3JEa-17" value="" style="rounded=0;whiteSpace=wrap;html=1;" vertex="1" parent="1">
          <mxGeometry x="-5" y="366" width="440" height="250" as="geometry" />
        </mxCell>
        <mxCell id="d7gIqnNGh7gK6bCU3JEa-1" value="" style="rounded=0;whiteSpace=wrap;html=1;" vertex="1" parent="1">
          <mxGeometry width="760" height="340" as="geometry" />
        </mxCell>
        <mxCell id="d7gIqnNGh7gK6bCU3JEa-4" value="GPS" style="text;html=1;align=center;verticalAlign=middle;whiteSpace=wrap;rounded=0;" vertex="1" parent="1">
          <mxGeometry x="20" width="170" height="30" as="geometry" />
        </mxCell>
        <mxCell id="d7gIqnNGh7gK6bCU3JEa-41" style="edgeStyle=orthogonalEdgeStyle;rounded=0;orthogonalLoop=1;jettySize=auto;html=1;entryX=0.5;entryY=0;entryDx=0;entryDy=0;exitX=1;exitY=1;exitDx=0;exitDy=0;" edge="1" parent="1" source="d7gIqnNGh7gK6bCU3JEa-6" target="d7gIqnNGh7gK6bCU3JEa-42">
          <mxGeometry relative="1" as="geometry">
            <mxPoint x="190" y="70" as="targetPoint" />
            <Array as="points">
              <mxPoint x="140" y="100" />
              <mxPoint x="140" y="160" />
              <mxPoint x="260" y="160" />
            </Array>
          </mxGeometry>
        </mxCell>
        <mxCell id="d7gIqnNGh7gK6bCU3JEa-82" style="edgeStyle=orthogonalEdgeStyle;rounded=0;orthogonalLoop=1;jettySize=auto;html=1;entryX=0;entryY=0.5;entryDx=0;entryDy=0;" edge="1" parent="1" source="d7gIqnNGh7gK6bCU3JEa-6" target="d7gIqnNGh7gK6bCU3JEa-44">
          <mxGeometry relative="1" as="geometry">
            <Array as="points">
              <mxPoint x="180" y="70" />
              <mxPoint x="180" y="140" />
            </Array>
          </mxGeometry>
        </mxCell>
        <mxCell id="d7gIqnNGh7gK6bCU3JEa-6" value="Sourcing project&amp;nbsp;&lt;div&gt;Published&lt;/div&gt;" style="shape=process;whiteSpace=wrap;html=1;backgroundOutline=1;" vertex="1" parent="1">
          <mxGeometry x="10" y="40" width="120" height="60" as="geometry" />
        </mxCell>
        <mxCell id="d7gIqnNGh7gK6bCU3JEa-27" style="edgeStyle=orthogonalEdgeStyle;rounded=0;orthogonalLoop=1;jettySize=auto;html=1;exitX=0.5;exitY=1;exitDx=0;exitDy=0;entryX=0.5;entryY=0;entryDx=0;entryDy=0;" edge="1" parent="1" source="d7gIqnNGh7gK6bCU3JEa-9" target="d7gIqnNGh7gK6bCU3JEa-23">
          <mxGeometry relative="1" as="geometry" />
        </mxCell>
        <mxCell id="d7gIqnNGh7gK6bCU3JEa-9" value="Send to BTP" style="shape=process;whiteSpace=wrap;html=1;backgroundOutline=1;" vertex="1" parent="1">
          <mxGeometry x="10" y="130" width="120" height="60" as="geometry" />
        </mxCell>
        <mxCell id="d7gIqnNGh7gK6bCU3JEa-11" value="" style="endArrow=classic;html=1;rounded=0;entryX=0.5;entryY=0;entryDx=0;entryDy=0;exitX=0.5;exitY=1;exitDx=0;exitDy=0;" edge="1" parent="1" source="d7gIqnNGh7gK6bCU3JEa-6" target="d7gIqnNGh7gK6bCU3JEa-9">
          <mxGeometry width="50" height="50" relative="1" as="geometry">
            <mxPoint x="430" y="130" as="sourcePoint" />
            <mxPoint x="480" y="80" as="targetPoint" />
          </mxGeometry>
        </mxCell>
        <mxCell id="d7gIqnNGh7gK6bCU3JEa-18" value="" style="ellipse;shape=cloud;whiteSpace=wrap;html=1;" vertex="1" parent="1">
          <mxGeometry x="-30" y="330" width="100" height="50" as="geometry" />
        </mxCell>
        <mxCell id="d7gIqnNGh7gK6bCU3JEa-37" style="edgeStyle=orthogonalEdgeStyle;rounded=0;orthogonalLoop=1;jettySize=auto;html=1;entryX=0;entryY=0.5;entryDx=0;entryDy=0;" edge="1" parent="1" source="d7gIqnNGh7gK6bCU3JEa-23" target="d7gIqnNGh7gK6bCU3JEa-24">
          <mxGeometry relative="1" as="geometry" />
        </mxCell>
        <mxCell id="d7gIqnNGh7gK6bCU3JEa-23" value="" style="rounded=0;whiteSpace=wrap;html=1;" vertex="1" parent="1">
          <mxGeometry x="20" y="406" width="120" height="60" as="geometry" />
        </mxCell>
        <mxCell id="d7gIqnNGh7gK6bCU3JEa-25" value="Supplier Manage Sourcing project" style="text;html=1;align=center;verticalAlign=middle;whiteSpace=wrap;rounded=0;" vertex="1" parent="1">
          <mxGeometry x="30" y="421" width="100" height="30" as="geometry" />
        </mxCell>
        <mxCell id="d7gIqnNGh7gK6bCU3JEa-35" value="" style="group" vertex="1" connectable="0" parent="1">
          <mxGeometry x="230" y="406" width="120" height="60" as="geometry" />
        </mxCell>
        <mxCell id="d7gIqnNGh7gK6bCU3JEa-24" value="" style="rounded=0;whiteSpace=wrap;html=1;" vertex="1" parent="d7gIqnNGh7gK6bCU3JEa-35">
          <mxGeometry width="120" height="60" as="geometry" />
        </mxCell>
        <mxCell id="d7gIqnNGh7gK6bCU3JEa-26" value="Supplier Manage Quotation" style="text;html=1;align=center;verticalAlign=middle;whiteSpace=wrap;rounded=0;" vertex="1" parent="d7gIqnNGh7gK6bCU3JEa-35">
          <mxGeometry x="7.5" y="15" width="105" height="30" as="geometry" />
        </mxCell>
        <mxCell id="d7gIqnNGh7gK6bCU3JEa-39" style="edgeStyle=orthogonalEdgeStyle;rounded=0;orthogonalLoop=1;jettySize=auto;html=1;" edge="1" parent="1" source="d7gIqnNGh7gK6bCU3JEa-24">
          <mxGeometry relative="1" as="geometry">
            <mxPoint x="260" y="280" as="targetPoint" />
          </mxGeometry>
        </mxCell>
        <mxCell id="d7gIqnNGh7gK6bCU3JEa-49" value="" style="group" vertex="1" connectable="0" parent="1">
          <mxGeometry x="200" y="176" width="120" height="60" as="geometry" />
        </mxCell>
        <mxCell id="d7gIqnNGh7gK6bCU3JEa-42" value="" style="shape=process;whiteSpace=wrap;html=1;backgroundOutline=1;" vertex="1" parent="d7gIqnNGh7gK6bCU3JEa-49">
          <mxGeometry y="43" width="120" height="60" as="geometry" />
        </mxCell>
        <mxCell id="d7gIqnNGh7gK6bCU3JEa-43" value="Quotation Submitted" style="text;html=1;align=center;verticalAlign=middle;whiteSpace=wrap;rounded=0;" vertex="1" parent="d7gIqnNGh7gK6bCU3JEa-49">
          <mxGeometry x="20" y="58" width="80" height="30" as="geometry" />
        </mxCell>
        <mxCell id="d7gIqnNGh7gK6bCU3JEa-53" value="" style="endArrow=classic;html=1;rounded=0;" edge="1" parent="1">
          <mxGeometry width="50" height="50" relative="1" as="geometry">
            <mxPoint x="140" y="101" as="sourcePoint" />
            <mxPoint x="130" y="97" as="targetPoint" />
            <Array as="points">
              <mxPoint x="130" y="97" />
            </Array>
          </mxGeometry>
        </mxCell>
        <mxCell id="d7gIqnNGh7gK6bCU3JEa-55" value="" style="endArrow=classic;html=1;rounded=0;entryX=0;entryY=0.5;entryDx=0;entryDy=0;" edge="1" parent="1">
          <mxGeometry width="50" height="50" relative="1" as="geometry">
            <mxPoint x="130" y="69.5" as="sourcePoint" />
            <mxPoint x="200" y="69.5" as="targetPoint" />
            <Array as="points">
              <mxPoint x="190" y="69.5" />
            </Array>
          </mxGeometry>
        </mxCell>
        <mxCell id="d7gIqnNGh7gK6bCU3JEa-56" value="" style="rounded=0;whiteSpace=wrap;html=1;" vertex="1" parent="1">
          <mxGeometry x="580" y="360" width="220" height="190" as="geometry" />
        </mxCell>
        <mxCell id="d7gIqnNGh7gK6bCU3JEa-68" value="Samson" style="text;html=1;align=center;verticalAlign=middle;whiteSpace=wrap;rounded=0;" vertex="1" parent="1">
          <mxGeometry x="580" y="366" width="60" height="30" as="geometry" />
        </mxCell>
        <mxCell id="d7gIqnNGh7gK6bCU3JEa-72" value="Data Container" style="swimlane;whiteSpace=wrap;html=1;" vertex="1" parent="1">
          <mxGeometry x="200" y="31" width="110" height="66" as="geometry" />
        </mxCell>
        <mxCell id="d7gIqnNGh7gK6bCU3JEa-74" value="Items&amp;nbsp;&lt;div&gt;Demand lines&lt;/div&gt;" style="text;html=1;align=left;verticalAlign=middle;whiteSpace=wrap;rounded=0;" vertex="1" parent="d7gIqnNGh7gK6bCU3JEa-72">
          <mxGeometry x="10" y="24" width="90" height="30" as="geometry" />
        </mxCell>
        <mxCell id="d7gIqnNGh7gK6bCU3JEa-76" value="" style="group" vertex="1" connectable="0" parent="1">
          <mxGeometry x="325" y="100" width="100" height="80" as="geometry" />
        </mxCell>
        <mxCell id="d7gIqnNGh7gK6bCU3JEa-77" value="" style="group" vertex="1" connectable="0" parent="d7gIqnNGh7gK6bCU3JEa-76">
          <mxGeometry width="100" height="80" as="geometry" />
        </mxCell>
        <mxCell id="d7gIqnNGh7gK6bCU3JEa-44" value="" style="rhombus;whiteSpace=wrap;html=1;" vertex="1" parent="d7gIqnNGh7gK6bCU3JEa-77">
          <mxGeometry width="100" height="80" as="geometry" />
        </mxCell>
        <mxCell id="d7gIqnNGh7gK6bCU3JEa-54" value="Check Submission deadline" style="text;html=1;align=center;verticalAlign=middle;whiteSpace=wrap;rounded=0;" vertex="1" parent="d7gIqnNGh7gK6bCU3JEa-77">
          <mxGeometry x="20" y="25" width="60" height="30" as="geometry" />
        </mxCell>
        <mxCell id="d7gIqnNGh7gK6bCU3JEa-79" value="" style="endArrow=classic;startArrow=classic;html=1;rounded=0;exitX=0.5;exitY=0;exitDx=0;exitDy=0;entryX=1;entryY=0.5;entryDx=0;entryDy=0;" edge="1" parent="1" source="d7gIqnNGh7gK6bCU3JEa-56" target="d7gIqnNGh7gK6bCU3JEa-72">
          <mxGeometry width="50" height="50" relative="1" as="geometry">
            <mxPoint x="420" y="280" as="sourcePoint" />
            <mxPoint x="470" y="230" as="targetPoint" />
            <Array as="points">
              <mxPoint x="690" y="60" />
            </Array>
          </mxGeometry>
        </mxCell>
        <mxCell id="d7gIqnNGh7gK6bCU3JEa-80" value="Sourcing project data send to Samson" style="text;html=1;align=left;verticalAlign=middle;whiteSpace=wrap;rounded=0;" vertex="1" parent="1">
          <mxGeometry x="430" y="31" width="150" height="30" as="geometry" />
        </mxCell>
        <mxCell id="d7gIqnNGh7gK6bCU3JEa-81" value="Acknowledgement received from SAMSON" style="text;html=1;align=center;verticalAlign=middle;whiteSpace=wrap;rounded=0;rotation=-90;" vertex="1" parent="1">
          <mxGeometry x="610" y="155" width="130" height="30" as="geometry" />
        </mxCell>
      </root>
    </mxGraphModel>
  </diagram>
</mxfile>
